# xmcd CD database file
#
# Track frame offsets:
#	150
#	18600
#	41430
#	60860
#	80575
#	101890
#	118090
#	145465
#	165225
#	182675
#	208105
#	235120
#	258545
#	280310
#	305635
#
# Disc length: 4382 seconds
#
# Revision: 2
# Processed by: cddbd v1.5.2PL0 Copyright (c) Steve Scherf et al.
# Submitted via: CDex 1.70beta2
#
DISCID=d4111c0f
DTITLE=Bruce Sprinting - The Rising
DYEAR=2000
DGENRE=
TTITLE0=Lonesome Day  Listen
TTITLE1=Into The Fire
TTITLE2=Waitin' On A Sunny Day
TTITLE3=Nothing Man
TTITLE4=Countin' On A Miracle
TTITLE5=Empty Sky
TTITLE6=Worlds Apart
TTITLE7=Let's Be Friends (Skin To Skin)
TTITLE8=Further On (Up The Road)
TTITLE9=The Fuse
TTITLE10=Mary's Place
TTITLE11=You're Missing
TTITLE12=The Rising
TTITLE13=Paradise
TTITLE14=My City Of Ruins
EXTD=YEAR: 2000
EXTT0=
EXTT1=
EXTT2=
EXTT3=
EXTT4=
EXTT5=
EXTT6=
EXTT7=
EXTT8=
EXTT9=
EXTT10=
EXTT11=
EXTT12=
EXTT13=
EXTT14=
PLAYORDER=
